<svg width="90" height="90" viewBox="0 0 90 90" fill="none" xmlns="http://www.w3.org/2000/svg">
<rect width="90" height="90" rx="10" fill="#318B91" fill-opacity="0.1"/>
<path d="M61.2307 51.5453C56.4184 51.5453 52.5034 55.4603 52.5034 60.2726C52.5034 65.0849 56.4184 68.9999 61.2307 68.9999C66.0439 68.9999 69.958 65.0849 69.958 60.2726C69.958 55.4603 66.043 51.5453 61.2307 51.5453ZM61.2307 64.6362C58.8242 64.6362 56.8671 62.6791 56.8671 60.2726C56.8671 57.8661 58.8242 55.9089 61.2307 55.9089C63.6372 55.9089 65.5944 57.8661 65.5944 60.2726C65.5944 62.6792 63.6372 64.6362 61.2307 64.6362Z" fill="#318B91"/>
<path d="M35.4272 51.5453C30.6149 51.5453 26.7 55.4603 26.7 60.2726C26.7 65.0849 30.6149 68.9999 35.4272 68.9999C40.2396 68.9999 44.1546 65.0849 44.1546 60.2726C44.1546 55.4603 40.2396 51.5453 35.4272 51.5453ZM35.4272 64.6362C33.0207 64.6362 31.0636 62.6791 31.0636 60.2726C31.0636 57.8661 33.0207 55.9089 35.4272 55.9089C37.8331 55.9089 39.7909 57.8661 39.7909 60.2726C39.7909 62.6792 37.8338 64.6362 35.4272 64.6362Z" fill="#318B91"/>
<path d="M67.108 26.5652C66.7371 25.8285 65.9829 25.3637 65.1582 25.3637H53.6672V29.7273H63.8127L69.7537 41.544L73.6534 39.5832L67.108 26.5652Z" fill="#318B91"/>
<path d="M54.6854 58.1637H40.6199V62.5273H54.6854V58.1637Z" fill="#318B91"/>
<path d="M27.987 58.1637H20.4235C19.2183 58.1637 18.2417 59.1404 18.2417 60.3454C18.2417 61.5506 19.2184 62.5272 20.4235 62.5272H27.9871C29.1923 62.5272 30.1689 61.5504 30.1689 60.3454C30.1689 59.1403 29.1921 58.1637 27.987 58.1637Z" fill="#318B91"/>
<path d="M77.718 44.8254L73.4264 39.2981C73.0141 38.7658 72.3778 38.4545 71.7035 38.4545H55.8489V23.1818C55.8489 21.9766 54.8722 21 53.6672 21H20.4235C19.2183 21 18.2417 21.9767 18.2417 23.1818C18.2417 24.3868 19.2184 25.3635 20.4235 25.3635H51.4853V40.6362C51.4853 41.8414 52.462 42.818 53.667 42.818H70.6351L73.8125 46.911V58.1634H67.7761C66.571 58.1634 65.5943 59.1402 65.5943 60.3452C65.5943 61.5503 66.5711 62.527 67.7761 62.527H75.9943C77.1994 62.527 78.176 61.5502 78.1762 60.3452V46.1636C78.1762 45.6793 78.0147 45.208 77.718 44.8254Z" fill="#318B91"/>
<path d="M27.8417 47.1094H17.8053C16.6001 47.1094 15.6235 48.0861 15.6235 49.2911C15.6235 50.4963 16.6003 51.4729 17.8053 51.4729H27.8416C29.0467 51.4729 30.0234 50.4961 30.0234 49.2911C30.0235 48.0861 29.0467 47.1094 27.8417 47.1094Z" fill="#318B91" fill-opacity="0.4"/>
<path d="M34.3 38.5269H15.6818C14.4767 38.5269 13.5 39.5037 13.5 40.7088C13.5 41.914 14.4767 42.8906 15.6818 42.8906H34.3C35.5051 42.8906 36.4817 41.9138 36.4817 40.7088C36.4817 39.5038 35.5051 38.5269 34.3 38.5269Z" fill="#318B91" fill-opacity="0.4"/>
<path d="M36.4235 29.9453H17.8053C16.6001 29.9453 15.6235 30.9221 15.6235 32.1271C15.6235 33.3322 16.6003 34.3088 17.8053 34.3088H36.4235C37.6287 34.3088 38.6053 33.3321 38.6053 32.1271C38.6054 30.9221 37.6287 29.9453 36.4235 29.9453Z" fill="#318B91" fill-opacity="0.4"/>
</svg>
