<svg width="14" height="25" viewBox="0 0 14 25" fill="none" xmlns="http://www.w3.org/2000/svg">
<path d="M13.1544 0.181829C12.7785 0.181829 11.4631 0 9.86578 0C7.89262 0 6.38928 0.545466 5.35572 1.54547C3.38256 3.45456 3.57046 6.63636 3.57046 8.0909C3.57046 8.36363 3.57046 8.54545 3.57046 8.63636H0.939598C0.469799 8.63636 0 9 0 9.54545V13.6364C0 14.0909 0.375839 14.5455 0.939598 14.5455H3.47652V24.0909C3.47652 24.5455 3.85236 25 4.41612 25H8.64431C9.11411 25 9.58391 24.6364 9.58391 24.0909V14.6364H12.0268C12.4966 14.6364 12.8725 14.2727 12.9664 13.8182L13.5302 9.72728C13.5302 9.45456 13.4363 9.18181 13.3423 8.99999C13.1544 8.81818 12.8725 8.72728 12.6846 8.72728H9.67785C9.67785 8.18182 9.67785 7.63636 9.67785 7.27273C9.67785 6.54545 9.67786 6.09091 9.86578 5.90909C10.0537 5.72727 10.3356 5.72729 10.8054 5.72729C11.0873 5.72729 11.5571 5.72729 11.9329 5.72729C12.6846 5.72729 13.3423 5.81818 13.7181 5.45455C13.9061 5.27273 14 5.09093 14 4.8182V1.00001C14 0.54546 13.6242 0.181829 13.1544 0.181829ZM7.89262 6.72727V9.54545C7.89262 10 8.26845 10.4545 8.83221 10.4545H11.651L11.3691 12.8182H8.73825C8.26845 12.8182 7.79865 13.1818 7.79865 13.7273V23.2727H5.35572V13.7273C5.35572 13.2727 4.97988 12.8182 4.41612 12.8182H1.78523V10.4545H4.41612C4.88592 10.4545 5.35572 10.0909 5.35572 9.54545V6.27272C5.35572 3.36363 6.95302 1.72727 9.77181 1.72727C10.7114 1.72727 11.557 1.81818 12.0268 1.81818V3.90911C11.9329 3.90911 11.745 3.90911 11.557 3.90911C10.8054 3.90911 9.39598 3.81818 8.55035 4.54545C8.17451 5 7.89262 5.81818 7.89262 6.72727Z" fill="black"/>
</svg>
