<svg width="25" height="25" viewBox="0 0 25 25" fill="none" xmlns="http://www.w3.org/2000/svg">
<path d="M18.0506 0H6.85924C3.06861 0 0 3.06861 0 6.85924V18.0506C0 21.8413 3.06861 24.9099 6.85924 24.9099H18.0506C21.8413 24.9099 24.9099 21.8413 24.9099 18.0506V6.85924C24.9099 2.97836 21.8413 0 18.0506 0ZM23.0145 6.76899V17.9604C23.0145 20.668 20.7582 22.9243 18.0506 22.9243H6.85924C4.15165 22.9243 1.89532 20.668 1.89532 17.9604V6.76899C1.89532 4.06139 4.15165 1.80506 6.85924 1.80506H18.0506C20.8485 1.80506 23.0145 4.06139 23.0145 6.76899Z" fill="black"/>
<path d="M12.4543 8.03125C9.56622 8.03125 7.12939 10.3778 7.12939 13.3562C7.12939 16.3345 9.47597 18.6811 12.4543 18.6811C15.4327 18.6811 17.7793 16.3345 17.7793 13.3562C17.7793 10.3778 15.4327 8.03125 12.4543 8.03125ZM16.2449 13.3562C16.2449 15.432 14.5301 17.1468 12.4543 17.1468C10.3785 17.1468 8.66369 15.432 8.66369 13.3562C8.66369 11.2804 10.3785 9.56554 12.4543 9.56554C14.5301 9.56554 16.2449 11.2804 16.2449 13.3562Z" fill="black"/>
<path d="M18.772 3.34058C17.4182 3.34058 16.2449 4.4236 16.2449 5.86766C16.2449 7.22145 17.3279 8.39476 18.772 8.39476C20.1258 8.39476 21.2991 7.31171 21.2991 5.86766C21.2991 4.4236 20.1258 3.34058 18.772 3.34058ZM18.772 6.49944C18.411 6.49944 18.0499 6.22869 18.0499 5.77742C18.0499 5.41641 18.3207 5.05538 18.772 5.05538C19.133 5.05538 19.494 5.32616 19.494 5.77742C19.494 6.22869 19.133 6.49944 18.772 6.49944Z" fill="black"/>
</svg>
