<svg width="90" height="90" viewBox="0 0 90 90" fill="none" xmlns="http://www.w3.org/2000/svg">
<rect width="90" height="90" rx="10" fill="#318B91" fill-opacity="0.1"/>
<path d="M64.6869 40.6699C63.0991 40.6699 61.812 41.957 61.812 43.5448V57.2961C61.812 57.3606 61.6897 57.4881 61.6109 57.4881H39.8189V51.5552C39.8189 50.6737 39.2736 50.0581 38.4927 50.0581C38.1939 50.0581 37.8926 50.1514 37.5974 50.3354L23.7948 58.9298C23.2896 59.2443 23.0001 59.7174 23 60.2275C23 60.7354 23.2875 61.2055 23.7889 61.5181L37.5971 70.112C37.8928 70.2962 38.1939 70.3896 38.4927 70.3896C39.2736 70.3896 39.8189 69.7739 39.8189 68.8923V63.238H61.6109C64.8366 63.238 67.5618 60.5169 67.5618 57.2961V43.5448C67.5618 41.957 66.2747 40.6699 64.6869 40.6699Z" fill="#318B91"/>
<path d="M68.2112 27.8715L54.403 19.2776C54.1073 19.0934 53.8062 19 53.5073 19C52.7265 19 52.1811 19.6157 52.1811 20.4973V26.1516H30.3892C27.1635 26.1516 24.4382 28.8727 24.4382 32.0935V45.8448C24.4382 47.4326 25.7253 48.7197 27.3131 48.7197C28.901 48.7197 30.1881 47.4326 30.1881 45.8448V32.0935C30.1881 32.0289 30.3104 31.9014 30.3892 31.9014H52.1811V37.8344C52.1811 38.7158 52.7265 39.3315 53.5073 39.3315C53.8062 39.3315 54.1075 39.2382 54.4027 39.0542L68.2053 30.4598C68.7104 30.1453 68.9999 29.6722 69.0001 29.1621C69.0001 28.6542 68.7126 28.184 68.2112 27.8715Z" fill="#318B91" fill-opacity="0.4"/>
</svg>
