<svg width="33" height="25" viewBox="0 0 33 25" fill="none" xmlns="http://www.w3.org/2000/svg">
<path d="M21.463 11.081L14.5488 7.10301C14.17 6.91358 13.6964 6.91358 13.3175 7.10301C12.9387 7.38715 12.6545 7.76602 12.6545 8.23959V16.1956C12.6545 16.6692 12.844 17.048 13.2228 17.3322C13.4123 17.5216 13.6964 17.6163 13.9805 17.6163C14.17 17.6163 14.3594 17.5216 14.5488 17.4269L21.463 13.4489C21.8418 13.2595 22.126 12.7859 22.126 12.3123C22.126 11.744 21.9366 11.2705 21.463 11.081ZM14.5488 15.1537V9.18674L19.6634 12.2176L14.5488 15.1537Z" fill="black"/>
<path d="M32.0709 5.967C32.0709 5.68285 31.7868 3.31502 30.6502 2.08373C29.4189 0.663012 27.9982 0.473566 27.2405 0.378852C27.1458 0.378852 27.1458 0.378852 27.0511 0.378852H26.9564C22.7889 0.0947086 16.5378 0 16.5378 0C16.4431 0 10.1919 -5.78655e-06 6.02448 0.378852H5.92976C5.92976 0.378852 5.83505 0.378852 5.74034 0.378852C5.07734 0.473566 3.65662 0.663012 2.42533 2.08373C1.38348 3.31502 1.09934 5.58816 1.09934 5.8723C1.09934 5.96702 0.909912 8.619 0.909912 11.271V13.7336C0.909912 16.3856 1.09934 19.0376 1.09934 19.1323C1.09934 19.4165 1.38348 21.6896 2.42533 22.9209C3.56191 24.2469 5.07733 24.4363 5.92976 24.531C6.02448 24.531 6.11919 24.531 6.21391 24.531H6.30863C8.67649 24.8152 16.1589 24.9099 16.5378 24.9099C16.6325 24.9099 22.8836 24.9099 26.9564 24.531H27.0511C27.1458 24.531 27.1458 24.531 27.2405 24.531C27.9035 24.4363 29.3242 24.3416 30.5555 22.8262C31.5974 21.5949 31.8815 19.3217 31.8815 19.0376C31.8815 18.9429 32.0709 16.2909 32.0709 13.6389V11.3657C32.3551 8.71372 32.0709 6.06171 32.0709 5.967ZM30.4608 13.8283C30.4608 16.2909 30.2714 18.8482 30.2714 19.0376C30.1767 19.7006 29.8925 21.1213 29.4189 21.6896C28.6612 22.6367 27.8088 22.7315 27.2405 22.7315C27.1458 22.7315 27.1458 22.7315 27.0511 22.7315C23.0731 23.0156 17.0114 23.1103 16.7272 23.1103C16.4431 23.1103 9.05534 23.0156 6.68748 22.7315C6.59277 22.7315 6.40334 22.7314 6.30863 22.6367C5.64563 22.542 4.69848 22.4473 3.94077 21.5949C3.4672 21.0266 3.18305 19.7006 3.08833 18.9429C3.08833 18.7535 2.89891 16.1962 2.89891 13.7336V11.3657C2.89891 8.90315 3.08833 6.34586 3.08833 6.15644C3.18305 5.39872 3.4672 3.97802 3.94077 3.50444C4.69848 2.5573 5.55092 2.46257 6.1192 2.36786C6.21392 2.36786 6.21392 2.36786 6.30863 2.36786C10.3813 2.08372 16.4431 1.98901 16.6325 1.98901C16.8219 1.98901 22.8836 2.08372 26.9564 2.36786C27.0511 2.36786 27.0511 2.36786 27.1458 2.36786C27.7141 2.46257 28.5665 2.55729 29.4189 3.40972C29.8925 3.97801 30.1767 5.39872 30.2714 6.15644C30.2714 6.34586 30.4608 8.90315 30.4608 11.3657V13.8283Z" fill="black"/>
</svg>
