<svg width="142" height="50" viewBox="0 0 142 50" fill="none" xmlns="http://www.w3.org/2000/svg">
<path d="M25.0385 9.19733H16.0573V50H8.98119V9.19733H0V0H25.0385V9.19733Z" fill="black"/>
<path d="M58.3322 50H50.6211L48.3531 38.8796H37.104L34.9267 50H27.2156L38.6462 0H47.0831L58.3322 50ZM46.7202 30.2676L43.3636 13.4615C43.0914 12.2074 42.91 10.7023 42.8193 8.94649H42.6378C42.5471 10.4515 42.3657 11.8729 42.0935 13.2943L38.6462 30.2676H46.7202Z" fill="black"/>
<path d="M85.5481 50H66.7693V0H73.8454V40.8027H85.5481V50Z" fill="black"/>
<path d="M113.127 50H94.2571V0H112.401V9.19733H101.333V20.3177H111.675V29.4314H101.333V40.8863H113.127V50Z" fill="black"/>
<path d="M141.431 50H122.652V0H129.728V40.8027H141.431V50Z" fill="black"/>
</svg>
